#N canvas 786 23 832 857 10;
#X msg 214 87 devices;
#X msg 236 113 ports;
#X msg 288 164 close;
#X obj 182 208 comport 1 9600;
#X msg 275 139 open 1;
#X floatatom 164 298 5 0 0 0 - - -, f 5;
#X floatatom 224 333 5 0 0 0 - - -, f 5;
#X text 128 293 yaw;
#X obj 204 666 dac~;
#X obj 164 461 mtof;
#X obj 205 635 *~ 0.8;
#X obj 163 421 line;
#X msg 163 397 \$1 100;
#X obj 358 528 vcf~ 1;
#X obj 383 384 line;
#X msg 383 360 \$1 100;
#X obj 365 497 sig~;
#X obj 139 486 phasor~ 440;
#X floatatom 401 410 5 0 0 0 - - -, f 5;
#X obj 164 266 moses 85;
#X obj 224 301 moses 170;
#X obj 160 370 jrange 86 170 0 128;
#X obj 210 570 panner~;
#X obj 26 327 jrange 0 85 0 1;
#X obj 254 637 *~ 0.8;
#X text 181 332 pitch;
#X text 333 353 roll;
#X obj 380 333 jrange 171 211 0 128;
#X obj 515 386 line;
#X msg 515 362 \$1 100;
#X obj 371 303 moses 211;
#X obj 512 335 jrange 212 256 128 0;
#X floatatom 516 415 5 0 0 0 - - -, f 5;
#X obj 225 487 phasor~ 220;
#X obj 238 466 + 5;
#X connect 0 0 3 0;
#X connect 1 0 3 0;
#X connect 2 0 3 0;
#X connect 3 0 19 0;
#X connect 4 0 3 0;
#X connect 6 0 21 0;
#X connect 9 0 17 0;
#X connect 9 0 34 0;
#X connect 10 0 8 0;
#X connect 11 0 9 0;
#X connect 12 0 11 0;
#X connect 13 0 22 0;
#X connect 14 0 16 0;
#X connect 14 0 18 0;
#X connect 15 0 14 0;
#X connect 16 0 13 1;
#X connect 17 0 13 0;
#X connect 19 0 5 0;
#X connect 19 0 23 0;
#X connect 19 1 20 0;
#X connect 20 0 6 0;
#X connect 20 1 30 0;
#X connect 21 0 12 0;
#X connect 22 0 10 0;
#X connect 22 1 24 0;
#X connect 23 0 22 1;
#X connect 24 0 8 1;
#X connect 27 0 15 0;
#X connect 28 0 32 0;
#X connect 29 0 28 0;
#X connect 30 0 27 0;
#X connect 30 1 31 0;
#X connect 31 0 29 0;
#X connect 32 0 16 0;
#X connect 33 0 13 0;
#X connect 34 0 33 0;
