#N canvas 786 23 832 857 10;
#X msg 214 87 devices;
#X msg 236 113 ports;
#X msg 288 164 close;
#X obj 182 208 comport 1 9600;
#X msg 275 139 open 1;
#X floatatom 164 298 5 0 0 0 - - -, f 5;
#X floatatom 223 324 5 0 0 0 - - -, f 5;
#X text 128 293 yaw;
#X obj 204 666 dac~;
#X obj 205 635 *~ 0.8;
#X obj 77 437 line;
#X msg 77 413 \$1 100;
#X obj 406 421 line;
#X msg 406 397 \$1 100;
#X obj 164 266 moses 85;
#X obj 224 301 moses 170;
#X obj 210 570 panner~;
#X obj -5 311 jrange 0 85 0 1;
#X obj 254 637 *~ 0.8;
#X text 181 332 pitch;
#X text 333 353 roll;
#X obj 371 303 moses 211;
#X obj 78 463 sig~;
#X obj 196 457 noise~;
#X floatatom 119 445 5 0 0 0 - - -, f 5;
#X obj 66 521 bob~;
#X obj 149 474 sig~;
#X msg 160 441 5;
#X obj 159 420 loadbang;
#X obj 224 349 moses 128;
#X obj 199 386 jrange 128 170 0 128;
#X floatatom 471 309 5 0 0 0 - - -, f 5;
#X obj 74 386 jrange 86 127 128 0;
#X floatatom 406 366 5 0 0 0 - - -, f 5;
#X obj 380 333 jrange 170 211 128 0;
#X floatatom 553 377 5 0 0 0 - - -, f 5;
#X obj 548 338 jrange 213 256 0 128;
#X obj 410 528 bob~;
#X obj 447 500 sig~;
#X msg 458 467 5;
#X obj 457 446 loadbang;
#X connect 0 0 3 0;
#X connect 1 0 3 0;
#X connect 2 0 3 0;
#X connect 3 0 14 0;
#X connect 4 0 3 0;
#X connect 6 0 29 0;
#X connect 9 0 8 0;
#X connect 10 0 22 0;
#X connect 10 0 24 0;
#X connect 11 0 10 0;
#X connect 12 0 37 1;
#X connect 13 0 12 0;
#X connect 14 0 5 0;
#X connect 14 0 17 0;
#X connect 14 1 15 0;
#X connect 15 0 6 0;
#X connect 15 1 21 0;
#X connect 15 1 31 0;
#X connect 16 0 9 0;
#X connect 16 1 18 0;
#X connect 17 0 16 1;
#X connect 18 0 8 1;
#X connect 21 0 34 0;
#X connect 21 1 36 0;
#X connect 22 0 25 1;
#X connect 23 0 25 0;
#X connect 25 0 16 0;
#X connect 25 0 37 0;
#X connect 26 0 25 2;
#X connect 27 0 26 0;
#X connect 28 0 27 0;
#X connect 29 0 32 0;
#X connect 29 1 30 0;
#X connect 30 0 11 0;
#X connect 32 0 11 0;
#X connect 34 0 13 0;
#X connect 34 0 33 0;
#X connect 36 0 13 0;
#X connect 36 0 35 0;
#X connect 37 0 16 0;
#X connect 38 0 37 2;
#X connect 39 0 38 0;
#X connect 40 0 39 0;
